# xmcd CD database file
#
# Track frame offsets:
#	150
#	24767
#	48920
#	74260
#	106455
#	141062
#	160682
#	184945
#
# Disc length: 3068 seconds
#
# Revision: 0
# Processed by: cddbd v1.4PL0 Copyright (c) Steve Scherf et al.
# Submitted via: CDex 1.40Beta6
#
DISCID=610bfa08
DTITLE=Gary Moore - Live At The Marquee
DYEAR=1987
DGENRE=Blues
TTITLE0=Back on the Streets
TTITLE1=Run to your Mama
TTITLE2=Dancin'
TTITLE3=She's got you
TTITLE4=Parisienne Walkways
TTITLE5=You
TTITLE6=Nuclear Attck
TTITLE7=Dallas Warhead
EXTD=
EXTT0=
EXTT1=
EXTT2=
EXTT3=
EXTT4=
EXTT5=
EXTT6=
EXTT7=
PLAYORDER=
